<svg width="541" height="363" viewBox="0 0 541 363" fill="none" xmlns="http://www.w3.org/2000/svg">
<g clip-path="url(#clip0)">
<path opacity="0.24" d="M360.532 330.347C341.308 350.6 308.094 349.741 282.28 339.097C256.466 328.454 234.561 310.035 209.255 298.235C187.494 288.087 163.628 283.026 141.897 272.811C97.6553 252.011 64.4845 209.129 55.4802 161.079C52.4096 144.693 52.2106 126.909 60.2153 112.289C73.26 88.4654 103.873 80.2023 131.012 81.295C158.148 82.3919 184.885 90.3967 212.008 89.0583C236.886 87.8301 260.684 78.8046 283.462 68.7331C306.244 58.6616 328.686 47.3745 352.806 41.1571C376.926 34.9397 403.422 34.1943 425.924 44.8715C448.431 55.5444 465.626 79.4823 463.187 104.267C460.993 126.524 444.509 144.507 427.818 159.39C411.122 174.272 392.665 188.77 384.008 209.391C375.897 228.717 377.646 250.508 377.634 271.464C377.621 292.42 374.957 315.147 360.532 330.347Z" fill="url(#paint0_linear)"/>
<path opacity="0.23" d="M314.439 7.74071C290.514 -6.65082 258.732 3.03106 236.687 20.1713C214.647 37.3115 198.443 60.9021 177.198 79.025C158.927 94.6108 137.281 105.847 119.056 121.488C81.9636 153.325 61.4266 203.5 65.5561 252.215C66.9622 268.825 71.5109 286.021 83.1283 297.977C102.052 317.459 133.761 317.264 159.622 308.972C185.483 300.679 209.116 285.839 235.616 279.897C259.918 274.446 285.262 276.805 309.903 280.439C334.544 284.073 359.185 288.969 384.088 288.528C408.992 288.088 434.725 281.743 453.573 265.458C472.42 249.169 482.614 221.517 473.652 198.278C465.605 177.411 444.924 164.476 424.866 154.578C404.807 144.685 383.152 135.634 369.311 118.062C356.343 101.599 352.218 80.1304 346.623 59.9323C341.024 39.7384 332.397 18.5449 314.439 7.74071Z" fill="url(#paint1_linear)"/>
<path opacity="0.24" d="M480.805 177.364C488.814 188.838 489.09 204.038 486.688 217.824C484.249 231.843 478.362 246.675 465.766 253.291C451.84 260.601 435.039 255.51 419.635 252.333C415.726 251.529 411.698 250.893 407.641 250.491C401.521 245.62 395.803 240.233 390.441 234.469C377.922 221.001 366.812 206.224 351.553 195.623C325.497 177.525 287.337 168.864 258.279 185.043C243.434 193.306 232.604 206.753 220.292 218.121C214.054 223.881 207.32 229.111 199.556 232.665C191.95 236.146 183.755 238.607 175.614 240.479C148.593 246.688 119.581 245.252 93.403 235.972C89.6463 232.69 86.2115 229.268 83.1832 225.795C77.7366 219.548 72.8957 212.598 70.3079 204.729C69.9945 203.78 69.7235 202.827 69.4821 201.861C92.1197 211.522 120.136 206.711 142.545 197.385C157.199 191.286 172.357 182.883 182.391 170.291C194.792 154.731 200.514 135.393 209.963 118.13C226.006 88.8213 259.079 69.8387 292.517 71.2152C312.236 72.0242 330.207 80.9903 347.186 90.3291C361.713 98.3169 369.095 102.196 391.699 112.662C391.703 112.662 448.727 131.416 480.805 177.364Z" fill="url(#paint2_linear)"/>
<path d="M331.024 173.959C330.474 173.273 329.868 172.354 329.228 171.388C328.326 170.025 327.39 168.614 326.42 167.547C325.967 167.051 325.434 166.899 325.175 166.827C325.12 166.81 325.044 166.793 324.951 166.759L323.138 166.132C323.303 159.788 322.16 141.17 322.071 139.704C322.071 139.484 322.067 139.281 322.062 139.098C322.058 138.794 322.05 138.556 322.067 138.378C322.346 135.257 321.961 132.436 320.889 129.755C320.368 128.451 319.983 127.032 319.746 125.529C319.335 122.941 318.971 120.285 318.615 117.723C318.365 115.91 318.115 114.102 317.848 112.293C317.687 111.192 317.459 110.116 317.243 109.074C317.149 108.617 317.052 108.164 316.963 107.711L316.484 105.275L314.155 106.127C313.617 106.326 313.105 106.525 312.613 106.715C311.631 107.101 310.784 107.431 309.932 107.66C308.259 108.109 306.536 108.532 304.867 108.939C304.164 109.113 303.465 109.282 302.762 109.456L302.22 109.591C301.737 109.714 301.259 109.837 300.771 109.96L300.09 110.138C299.624 110.26 299.162 110.387 298.705 110.514L298.065 110.692C297.447 110.87 296.828 111.052 296.219 111.243L295.998 111.311C293.999 111.929 291.92 112.162 289.717 112.408C289.353 112.45 288.985 112.488 288.62 112.53L288.891 111.146L286.981 110.633C283.61 109.731 279.993 109.257 275.915 109.189C274.623 109.168 273.437 109.202 272.289 109.29C271.883 109.324 271.476 109.362 271.069 109.409C270.544 109.473 270.027 109.549 269.515 109.638L269.913 109.329L268.283 107.626C267.673 106.885 266.957 106.758 266.474 106.775L266.372 106.779C266.106 106.787 265.741 106.8 265.343 106.885C261.481 107.728 257.686 109.231 253.391 111.62C252.862 111.916 252.324 112.187 251.803 112.429C251.257 112.679 250.71 112.903 250.185 113.09C249.474 113.339 248.745 113.577 248.123 113.776C247.568 113.954 247.013 114.123 246.458 114.297C246.098 114.407 245.742 114.521 245.382 114.631L248.144 111.154L242.93 111.857C242.147 111.963 241.393 112.137 240.613 112.386C239.555 112.725 238.491 113.2 237.272 113.873C236.958 114.047 236.67 114.229 236.395 114.407C235.726 114.834 235.298 115.093 234.921 115.072C234.798 115.063 234.659 115.025 234.498 114.957L232.655 114.191L230.991 117.613C230.538 118.545 230.089 119.472 229.64 120.395L229.466 120.751C229.17 121.361 228.869 121.971 228.564 122.577L228.259 123.182C228.047 123.593 227.802 124.042 227.564 124.262C226.34 125.389 225.51 126.71 225.023 128.294C224.854 128.841 224.727 129.429 224.642 130.056L224.629 130.162C224.549 130.78 224.511 131.437 224.511 132.161C224.511 132.644 224.341 133.224 224.18 133.732C224.138 133.872 224.091 134.008 224.045 134.143L223.969 134.372C223.892 134.596 223.816 134.821 223.744 135.045C223.698 135.189 223.6 135.388 223.499 135.6C223.168 136.286 222.673 137.32 222.8 138.649C222.804 138.709 223.312 144.74 223.151 151.072C223.126 152.033 223.092 152.753 222.834 153.291C222.77 153.426 222.698 153.558 222.622 153.689C222.465 153.956 222.279 154.227 222.05 154.523C221.72 154.951 221.385 155.375 221.055 155.798L220.652 156.315C219.797 157.408 218.937 158.496 218.073 159.597L216.18 161.999L216.146 162.003C214.859 162.181 214.168 162.808 213.821 163.303C213.732 163.43 213.656 163.562 213.592 163.689L213.465 163.6L212.224 164.726C211.818 165.095 211.415 165.467 211.013 165.836C210.077 166.696 209.111 167.585 208.146 168.411C206.799 169.563 206.32 171.011 206.735 172.714C207.476 175.772 207.858 178.576 207.896 181.29C207.951 184.979 209.946 187.914 213.52 189.549C214.13 189.829 214.698 189.952 215.206 189.952C215.464 189.952 215.706 189.913 215.934 189.858L216.002 190.443C216.091 191.214 216.18 191.989 216.265 192.76C216.294 193.026 216.32 193.293 216.345 193.56L216.383 193.988C216.459 194.818 216.536 195.678 216.68 196.55C217.019 198.621 217.374 200.692 217.73 202.763L218.065 204.707C218.264 205.864 218.459 207.02 218.649 208.172C218.874 209.519 219.09 210.865 219.297 212.212L219.31 212.293C219.687 214.753 220.305 217.269 221.135 219.768C221.686 221.416 222.347 223.114 223.109 224.821C223.397 225.469 223.706 226.129 224.024 226.786C224.151 227.044 224.282 227.307 224.413 227.574L224.189 227.811C224.151 227.849 224.117 227.879 224.091 227.904C223.884 228.095 223.393 228.535 223.253 229.31L223.232 229.446C223.151 229.903 223.062 230.449 223.02 231.013L223.016 231.068C222.99 231.432 222.944 231.792 222.901 232.148L222.825 232.889C222.55 235.032 222.08 237.205 221.394 239.471L220.144 238.916L219.115 239.949C216.997 242.075 216.214 244.875 216.853 248.039L217.226 249.877C216.879 250.991 216.726 252.333 217.209 253.917C217.569 255.095 217.921 256.306 218.259 257.479C218.649 258.826 219.051 260.215 219.479 261.587C219.822 262.697 220.271 263.777 220.801 264.806C222.613 268.292 225.155 271.159 227.632 273.95C230.322 276.983 233.621 279.77 237.716 282.467C242.591 285.682 247.733 287.694 253.002 288.452L253.899 288.583C260.494 289.532 267.313 290.514 274.174 290.705C275.178 290.735 276.19 290.756 277.215 290.756C281.907 290.756 286.778 290.32 291.543 288.138C292.119 287.876 292.657 287.715 293.097 287.673C296.435 287.363 299.488 285.945 302.432 283.327C303.122 282.713 303.867 282.137 304.651 281.527C305.854 280.595 307.095 279.634 308.213 278.473C312.287 274.234 315.032 269.219 316.971 265.323C317.539 264.184 318.001 263.015 318.45 261.888C318.653 261.376 318.856 260.867 319.068 260.359C319.419 259.525 319.508 258.805 319.445 258.191L319.979 256.89C321.181 253.968 322.321 248.424 321.931 245.917L321.732 244.638L320.504 244.231C317.988 243.397 315.697 243.062 313.494 243.206C313.427 242.469 313.363 241.732 313.304 241.004C313.232 240.165 313.164 239.331 313.083 238.492C312.973 237.328 312.855 236.167 312.723 234.867L312.308 230.754C312.406 230.577 312.507 230.399 312.601 230.221C315.659 224.279 318.009 218.874 319.788 213.699C321.867 207.647 323.011 202.484 323.392 197.452C323.651 194.03 323.786 190.561 323.917 187.211L323.985 185.496C324.002 185.106 324.04 184.696 324.083 184.259C324.108 183.993 324.133 183.709 324.155 183.421C324.925 183.866 325.777 184.107 326.594 184.107C326.958 184.107 327.314 184.06 327.649 183.963C330.139 183.247 331.257 180.291 331.541 179.401C332.223 177.208 332.036 175.23 331.024 173.959Z" fill="#F8A383"/>
<path d="M223.016 229.496L222.995 229.628C222.914 230.089 222.834 230.593 222.791 231.119L222.787 231.148C222.757 231.525 222.715 231.902 222.668 232.275L222.613 232.851C221.999 237.836 216.968 241.271 214.058 247.272C213.228 248.983 217.734 252.066 218.204 253.604C218.569 254.79 218.92 256.005 219.259 257.183C219.649 258.525 220.047 259.91 220.47 261.27C220.796 262.32 221.216 263.345 221.724 264.315C223.477 267.686 225.972 270.503 228.407 273.243C231.037 276.203 234.265 278.931 238.28 281.578C243.023 284.703 248.017 286.66 253.133 287.397L254.031 287.528C260.596 288.473 267.385 289.451 274.187 289.642C275.178 289.672 276.177 289.688 277.185 289.688C281.764 289.688 286.499 289.265 291.085 287.168C291.78 286.851 292.42 286.664 292.983 286.609C296.087 286.321 298.942 284.987 301.712 282.527C302.432 281.887 303.22 281.273 303.986 280.68C305.159 279.774 306.371 278.833 307.434 277.728C311.411 273.594 314.104 268.669 316.006 264.84C316.552 263.739 317.01 262.591 317.45 261.486C317.653 260.969 317.861 260.452 318.077 259.94C318.691 258.47 320.093 256.878 318.894 256.035C318.615 255.84 318.314 255.433 318.068 254.929C317.179 253.091 316.154 250.948 315.26 248.784C314.833 247.751 314.545 246.683 314.418 245.696C314.21 244.028 314.066 242.317 313.926 240.656C313.854 239.822 313.787 238.988 313.71 238.158C313.6 236.997 313.482 235.837 313.35 234.541L312.851 229.59L309.517 232.465C309.094 233.101 308.696 233.685 308.319 234.244C307.514 235.43 306.824 236.455 306.159 237.505L306.125 237.56C305.155 239.094 304.189 240.665 303.253 242.181L302.978 242.63C302.529 243.359 302.084 244.083 301.631 244.807L301.343 245.273C301.119 245.633 300.899 245.993 300.67 246.349C300.352 246.853 299.929 247.513 299.467 248.161C298.54 249.47 297.561 250.758 296.566 251.977C296.015 252.651 295.516 253.362 295.028 254.053C294.558 254.722 294.114 255.353 293.627 255.95C293.495 256.115 293.36 256.276 293.22 256.433C292.991 256.691 292.775 256.92 292.559 257.127C292.415 257.263 292.267 257.394 292.115 257.521C291.733 257.839 291.356 258.106 290.975 258.322L290.852 258.394L290.78 258.457C290.721 258.508 290.662 258.559 290.598 258.623C289.938 259.271 289.226 259.851 288.472 260.342C288.286 260.465 288.1 260.579 287.909 260.694C287.159 261.134 286.359 261.507 285.529 261.795C284.101 262.295 282.56 262.566 280.942 262.604C279.985 262.625 278.977 262.68 277.863 262.765C276.215 262.887 274.555 263.07 272.954 263.239C272.035 263.336 271.12 263.438 270.201 263.527C269.752 263.569 269.303 263.612 268.85 263.65C266.745 263.828 264.56 263.739 262.518 263.4C261.858 263.29 261.176 263.154 260.426 262.989C260.075 262.913 259.727 262.828 259.38 262.748C258.275 262.481 257.152 262.18 256.064 261.888L254.852 261.566C254.598 261.498 254.344 261.431 254.09 261.367C252.599 260.982 251.066 260.439 249.969 259.101C248.673 257.526 247.364 255.959 246.056 254.391C244.179 252.143 242.24 249.822 240.368 247.509L239.559 246.501C239.559 246.501 227.95 233.897 224.413 227.544C224.405 227.557 223.41 228.404 223.016 229.496Z" fill="#E27554"/>
<path d="M178.025 243.797L175.319 243.623C172.456 243.441 169.927 243.645 167.352 244.271L166.424 244.496C164.476 244.966 162.464 245.453 160.512 246.076C159.584 246.372 158.72 246.783 157.882 247.185C157.293 247.469 156.738 247.732 156.167 247.956L155.574 248.189C152.931 249.231 150.199 250.307 147.476 251.226C145.82 251.785 144.422 252.738 143.202 254.14C142.872 254.521 142.537 254.898 142.207 255.279C140.322 257.431 138.374 259.654 136.684 262.034C133.952 265.884 131.263 269.857 128.667 273.698C127.265 275.774 125.863 277.849 124.444 279.911C123.974 280.598 123.453 281.279 122.949 281.94C122.445 282.601 121.92 283.283 121.433 283.99C119.667 286.552 117.769 289.356 115.639 292.562L115.304 293.062C112.687 297.001 109.981 301.071 107.368 305.111C102.205 313.095 97.6602 321.43 93.8612 329.879C93.4249 330.849 92.9167 331.773 92.3449 332.628C88.3892 338.562 84.6113 343.111 80.4522 346.939C77.5722 349.595 74.4551 352.356 70.8169 354.41C69.9445 354.906 69.216 355.579 68.4875 356.291C67.5219 357.231 66.3826 357.904 64.896 358.417C64.2565 358.637 63.744 359.044 63.2908 359.404C63.1214 359.539 62.9562 359.671 62.7826 359.793L60 361.72H452.811L451.176 359.946C451.062 359.823 450.952 359.692 450.841 359.56C450.57 359.243 450.261 358.879 449.88 358.574C446.831 356.104 444.027 353.246 441.308 349.845C440.236 348.506 439.114 347.181 438.03 345.902C436.433 344.017 434.781 342.069 433.295 340.07C430.965 336.923 428.907 333.607 426.827 330.201C424.337 326.114 421.825 321.943 419.403 317.906C416.396 312.9 413.283 307.725 410.174 302.663C407.167 297.772 404.054 293.087 400.585 287.912C398.286 284.477 395.838 281.072 393.47 277.781L393.165 277.353C392.246 276.074 391.238 274.855 390.26 273.673L389.853 273.177C388.934 272.063 388.04 270.89 387.176 269.751C385.313 267.303 383.386 264.766 381.035 262.589C380.091 261.712 378.973 260.92 377.202 261.005C375.33 261.098 373.535 260.459 371.633 259.777L371.383 259.688C368.257 258.57 365.318 257.096 362.392 255.173C360.532 253.953 358.931 253.161 357.203 252.611C352.633 251.154 348.487 249.887 344.074 249.125C343.201 248.973 342.405 248.854 341.482 248.901L339.136 249.028C339.136 249.028 338.492 249.295 337.92 249.074C337.005 248.723 336.184 248.168 335.32 247.711C334.528 247.287 333.731 246.868 332.935 246.457C332.304 246.131 331.66 245.86 331.033 245.597L330.911 245.546C330.644 245.432 330.377 245.347 330.119 245.263C329.733 245.135 329.369 245.017 329.123 244.843C326.413 242.975 323.486 243.086 320.623 243.196L320.026 243.217L319.738 243.738C319.704 243.797 319.67 243.848 319.636 243.899C319.509 244.089 319.319 244.373 319.293 244.767C318.827 252.111 316.947 259.006 313.707 265.266C311.454 269.615 308.781 273.559 305.766 276.976C305.232 277.582 304.592 278.133 304.038 278.59C302.496 279.865 300.81 281.224 298.744 282.868C297.778 283.639 296.681 284.397 295.245 284.757C293.216 285.265 291.205 285.909 289.261 286.531C288.38 286.815 287.495 287.099 286.609 287.37C282.171 288.729 277.66 288.763 273.832 288.615C268.609 288.416 263.324 287.768 258.212 287.141C256.916 286.98 255.616 286.823 254.32 286.671C249.258 286.078 244.646 284.676 240.216 282.393C235.146 279.78 230.593 276.18 226.68 271.695L226.578 271.581C224.334 269.01 222.212 266.579 220.814 263.597C220.759 263.474 220.691 263.356 220.619 263.237C220.577 263.165 220.518 263.063 220.505 263.025C220.2 262.077 219.878 261.132 219.556 260.188C218.209 256.215 216.816 252.111 216.617 247.863C216.562 246.686 216.676 245.453 216.803 244.153C216.867 243.501 216.926 242.831 216.977 242.133L217.04 241.205L216.126 241.023C215.969 240.993 215.795 240.947 215.605 240.896C215.041 240.748 214.334 240.561 213.589 240.57C212.653 240.578 211.687 240.549 210.751 240.523C208.244 240.451 205.656 240.375 203.081 240.938C201.819 241.214 200.497 241.417 199.218 241.612C197.088 241.938 194.911 242.272 192.798 242.959L191.197 242.539C191.01 242.493 190.858 242.438 190.718 242.391C190.362 242.272 189.998 242.15 189.558 242.205C188.986 242.277 188.414 242.349 187.847 242.421C185.543 242.713 183.167 243.009 180.833 243.437C180.846 243.433 179.219 243.831 178.025 243.797Z" fill="#F8C88D"/>
<path d="M159.067 246.679C159.304 246.539 159.541 246.408 159.774 246.26C163.955 243.557 167.804 240.521 170.951 236.709C166.932 239.966 162.955 243.269 159.067 246.679Z" fill="#A6B6D2"/>
<path d="M333.273 117.638C333.345 119.968 333.112 122.31 333.006 124.643C332.993 124.965 333.015 125.473 332.841 125.571C331.257 126.456 332.083 127.832 332.049 129.044C331.952 132.487 331.833 135.926 331.706 139.369C331.604 142.097 331.486 144.824 331.354 147.552C331.321 148.234 331.215 152.075 331.113 153.016C327.479 150.699 322.608 144.697 319.767 142.22C319.623 139.149 319.978 136.244 319.741 133.355C319.652 132.279 319.216 131.212 318.839 130.179C317.666 126.981 317.158 123.64 316.7 120.289C316.603 119.586 316.184 118.866 316.133 118.159C316.09 117.511 316.226 116.774 315.955 116.236C314.845 114.017 315.9 113.831 315.32 111.51C314.955 110.048 315.32 108.968 314.896 108.968C314.473 108.968 314.473 108.968 313.625 108.968C312.961 108.968 312.927 109.693 312.778 110.239C312.164 112.513 312.728 113.708 310.563 114.271C304.901 115.749 299.259 117.299 293.593 118.748C292.479 119.032 291.28 118.985 289.785 119.12C290.196 117.579 289.433 117.384 288.362 117.274C285.389 116.977 282.416 116.651 279.468 116.198C275.737 115.622 272.081 116.16 268.414 116.677C267.935 116.744 267.457 116.787 266.588 116.888C268.312 115.22 270.349 114.61 271.874 113.305C271.057 112.234 270.353 112.683 269.689 112.797C264.78 113.648 260.201 115.465 255.674 117.486C253.188 118.595 250.6 119.472 248.055 120.433C246.674 120.954 245.276 121.437 243.51 122.072C243.849 121.446 243.972 121.124 244.175 120.874C244.705 120.217 245.314 119.62 245.801 118.934C246.034 118.608 246.259 118.019 246.115 117.757C245.962 117.481 245.353 117.337 244.954 117.359C244.45 117.38 243.938 117.579 243.464 117.782C241.138 118.782 238.822 119.802 236.505 120.823C235.755 121.153 236.907 117.439 235.696 117.439C234.849 117.439 234.171 116.829 234.002 117.439C233.214 120.272 231.706 120.277 231.249 123.284C231.156 123.906 230.593 124.571 230.072 124.999C228.521 126.278 227.768 127.943 227.471 129.853C227.331 130.751 227.272 131.67 227.276 132.576C227.285 134.067 226.806 135.35 225.968 136.578C225.527 137.222 225.324 138.035 225.015 138.768C225.137 138.882 226.107 140.691 226.226 140.805C220.915 143.791 213.486 146.777 208.124 149.792C207.591 149.526 206.24 147.577 205.786 147.349C205.731 147.128 205.659 146.997 205.681 146.883C206.172 144.354 206.693 141.83 207.15 139.297C207.239 138.802 207.226 138.205 207.027 137.76C206.451 136.502 206.553 135.236 206.718 133.931C206.773 133.504 206.807 132.851 206.566 132.644C205.642 131.856 205.884 130.882 205.935 129.925C206.104 126.625 205.786 123.284 206.849 120.065C206.989 119.641 207.002 119.163 206.989 118.71C206.849 114.11 208.184 109.858 210.039 105.728C210.119 105.551 210.327 105.373 210.301 105.22C210.242 104.826 210.085 104.441 209.967 104.056C209.641 104.195 209.192 104.242 209.009 104.492C208.599 105.051 208.315 105.703 207.701 106.279C207.735 105.898 207.68 105.487 207.815 105.144C209.103 101.883 210.424 98.6343 211.729 95.3816C212.038 94.6066 212.3 93.8146 212.605 93.0395C212.961 92.1332 213.3 91.2141 213.723 90.3374C214.431 88.8677 214.456 88.8805 213.075 87.7581C213.634 86.856 214.113 85.8522 214.799 85.0221C216.667 82.7774 218.619 80.6047 220.546 78.4108C222.342 76.3652 224.146 74.3237 225.955 72.2866C226.649 71.5073 226.027 70.8593 225.608 70.0292C227.141 68.9661 228.644 67.9623 230.105 66.8993C230.724 66.4503 231.27 65.8955 231.817 65.3576C232.867 64.3157 233.866 63.2188 234.955 62.2193C235.256 61.944 235.785 61.8593 236.221 61.7957C240.338 61.1943 244.455 60.6056 248.571 60.0381C250.054 59.8348 251.545 59.7289 253.027 59.5214C254.734 59.28 254.895 59.0005 254.513 57.0607C256.309 57.192 258.05 57.3021 259.791 57.4503C261.002 57.552 261.002 57.5732 262.213 56.5398C261.87 55.8833 261.519 55.2141 261.087 54.3882C263.086 54.5068 264.653 55.2099 266.144 56.1459C266.745 56.527 267.338 56.9252 267.952 57.2852C268.227 57.4461 268.6 57.6875 268.841 57.6113C271.209 56.8532 273.564 58.1322 275.914 57.6282C276.376 57.5308 276.952 57.4376 277.232 57.1242C277.71 56.5821 277.232 56.0781 276.893 55.5783C275.779 53.9308 274.712 52.2494 273.623 50.5849C273.721 50.4663 273.814 50.352 273.911 50.2334C274.369 50.335 274.856 50.3689 275.275 50.5553C279.015 52.2113 282.75 53.88 286.477 55.5741C287.769 56.1628 288.193 56.04 288.739 54.7609C288.938 54.295 289.107 53.8207 289.4 53.071C290.306 53.7445 291.115 54.2527 291.814 54.888C292.627 55.6249 293.347 56.4593 294.097 57.264C295.003 58.2423 294.999 58.2466 296.083 57.4292C296.235 57.3148 296.409 57.2301 296.697 57.0565C298.933 58.2593 301.212 59.4706 302.715 61.7322C304.079 61.1943 303.444 59.911 303.922 58.7294C305.286 60.1101 306.599 61.2579 307.696 62.5835C309.225 64.4301 310.555 66.4419 312.05 68.3181C312.414 68.7755 313.088 68.9873 313.774 69.1228C313.871 69.2922 313.994 69.4489 314.062 69.6268C314.705 71.2828 315.26 72.8541 316.81 74.1077C318.153 75.192 318.881 77.0301 319.898 78.5209C320.105 78.8259 320.504 79.3638 320.614 79.3172C321.99 78.7496 322.092 79.9736 322.515 80.6513C323.201 81.7482 323.799 82.9002 324.468 84.0946C325.052 83.9633 325.514 83.8574 326.022 83.743C326.945 87.7877 327.852 91.752 328.805 95.9153C329.449 95.5468 329.914 95.28 330.601 94.8861C331.117 96.8386 331.647 98.6979 332.096 100.578C332.303 101.459 332.265 102.4 332.498 103.272C333.743 108.003 333.129 112.844 333.273 117.638Z" fill="#252E55"/>
<path d="M60.228 282.374C61.7443 281.188 63.2647 279.998 64.781 278.812C64.8614 278.918 64.9419 279.02 65.0224 279.126C63.5231 280.337 62.028 281.549 60.5287 282.76C60.4271 282.633 60.3297 282.506 60.228 282.374Z" fill="white"/>
<path d="M51.3549 289.443C51.5666 289.282 51.7784 289.121 51.9902 288.964C52.0452 289.036 52.096 289.108 52.1511 289.18C51.9393 289.337 51.7233 289.498 51.5116 289.655C51.4565 289.583 51.4057 289.511 51.3549 289.443Z" fill="white"/>
<path d="M244.865 221.157C246.255 219.141 247.551 217.053 249.08 215.147C249.579 214.524 250.664 214.359 251.485 214.004C252.434 213.593 253.514 213.364 254.31 212.758C255.098 212.161 256.424 212.436 256.796 211.179C256.839 211.039 257.368 210.992 257.673 210.988C259.028 210.963 260.265 210.332 261.667 210.315C262.429 210.306 263.175 209.247 264.026 208.591C264.445 208.959 264.86 209.324 265.275 209.688C265.398 209.662 265.546 209.671 265.644 209.603C266.084 209.302 266.389 208.544 267.088 209.082C267.728 209.573 267.296 210.12 267.071 210.649C266.673 211.589 266.305 212.547 265.856 213.652C265.038 213.203 264.386 212.847 263.624 212.428C261.684 214.114 259.249 213.974 256.737 214.156C256.225 215.134 255.394 215.812 254.09 215.901C253.404 215.948 252.836 216.337 252.396 217.032C251.824 217.93 250.096 218.12 248.889 217.578C247.474 218.654 246.983 220.75 245.158 221.449C245.06 221.356 244.963 221.259 244.865 221.157Z" fill="#252E55"/>
<path d="M255.166 154.811C254.797 155.633 254.378 156.132 253.594 155.832C252.862 155.548 252.26 155.785 251.549 155.95C250.583 156.175 249.533 156.035 248.516 156.031C247.945 156.027 247.369 155.916 246.801 155.955C244.586 156.099 242.371 156.336 240.152 156.425C239.559 156.45 238.949 156.09 238.241 155.878C236.806 156.272 235.234 156.912 233.621 157.073C232.562 157.179 231.952 157.56 231.385 158.314C231.194 158.563 230.927 158.911 230.673 158.932C230.216 158.97 229.652 158.915 229.305 158.665C229.144 158.547 229.271 157.81 229.47 157.479C229.69 157.115 230.118 156.835 230.512 156.632C231.973 155.874 233.125 154.464 234.972 154.51C236.806 152.892 238.771 153.502 240.749 154.155C240.965 154.227 241.244 154.176 241.473 154.104C242.642 153.748 242.638 153.739 243.824 154.366C244.518 153.79 245.306 153.113 246.272 154.019C247.983 153.46 249.647 154.786 251.468 153.985C252.591 153.485 254.014 153.773 255.166 154.811Z" fill="#252E55"/>
<path d="M279.341 212.831C279.1 211.729 278.82 210.679 278.663 209.612C278.621 209.328 278.896 208.799 279.133 208.727C279.388 208.646 279.82 208.913 280.074 209.142C280.34 209.383 280.493 209.756 280.76 210.179C281.175 209.726 281.509 209.362 281.967 208.862C283.161 209.658 284.326 210.429 285.77 211.391C286.037 211.475 286.702 211.623 287.312 211.899C288.98 212.661 290.598 213.529 292.288 214.241C292.915 214.503 293.677 214.495 294.38 214.512C296.151 214.546 298.654 216.316 299.128 217.976C299.196 218.218 298.993 218.54 298.823 219.171C297.896 218.455 297.078 217.964 296.443 217.299C295.761 216.587 295.215 216.176 294.105 216.503C293.402 216.71 292.483 216.329 291.7 216.083C289.747 215.469 287.701 215.003 285.923 214.055C284.521 213.305 282.877 213.809 281.573 212.78C281.158 212.445 280.213 212.788 279.341 212.831Z" fill="#252E55"/>
<path d="M260.193 195.512C260.108 198.439 262.086 200.061 264.941 200.188C266.588 200.26 268.21 201.204 269.82 201.827C270.768 202.191 271.645 202.75 272.594 203.119C274.669 203.928 276.617 203.678 278.553 202.505C279.104 202.17 280.031 202.399 280.772 202.483C280.963 202.505 281.247 202.979 281.225 203.22C281.204 203.453 280.882 203.75 280.628 203.856C279.684 204.245 278.727 204.631 277.74 204.902C276.876 205.139 275.944 205.423 275.084 205.325C272.835 205.071 270.578 204.745 268.668 203.318C267.423 202.39 265.949 202.107 264.428 202.081C260.841 202.022 258.528 199.65 258.609 196.059C258.622 195.542 258.554 194.97 258.749 194.521C258.918 194.131 259.405 193.877 259.748 193.564C259.926 193.924 260.172 194.267 260.261 194.648C260.328 194.94 260.214 195.283 260.193 195.512Z" fill="#252E55"/>
<path d="M291.551 156.98C293.19 156.09 295.092 156.569 296.379 155.222C296.422 155.18 296.519 155.137 296.557 155.154C297.946 155.874 299.53 154.947 300.835 155.544C301.873 156.018 302.673 155.883 303.601 155.514C304.892 155.002 306.222 154.68 307.586 155.188C308.149 155.4 308.653 155.764 309.208 156.073C308.857 157.047 308.319 157.361 307.628 156.988C305.913 156.056 304.359 156.675 302.787 157.352C302.609 157.429 302.427 157.505 302.262 157.607C301.199 158.255 300.208 158.411 299.484 157.136C298.23 157.463 297.188 158.5 295.952 157.666C293.753 159.974 293.753 159.974 292.64 158.318C292.072 158.483 291.466 158.792 290.852 158.797C290.348 158.801 289.844 158.441 289.264 158.208C288.925 158.53 288.544 158.979 288.074 159.296C287.858 159.44 287.384 159.436 287.176 159.284C286.977 159.14 286.841 158.687 286.913 158.437C287.206 157.446 287.557 156.62 288.764 156.188C289.95 155.768 290.742 155.853 291.551 156.98Z" fill="#252E55"/>
<path d="M254.611 221.509C258.401 221.75 261.794 222.076 265.191 222.152C268.685 222.229 272.187 222.135 275.681 221.979C279.07 221.826 282.445 221.496 285.838 221.398C276.308 224.088 266.643 223.88 256.94 222.83C256.208 222.75 255.377 222.792 254.611 221.509Z" fill="#252E55"/>
<path d="M255.966 171.274C255.191 171.481 254.425 171.782 253.633 171.875C251.439 172.125 249.232 172.451 247.034 172.421C245.446 172.4 243.837 171.96 242.286 171.524C240.287 170.96 238.309 170.295 236.382 169.524C235.302 169.092 234.121 168.563 233.981 166.708C234.832 167.017 235.459 167.25 236.09 167.47C239.093 168.508 242.066 169.673 245.124 170.516C246.517 170.901 248.089 170.689 249.58 170.66C251.007 170.63 252.43 170.448 253.857 170.41C254.535 170.393 255.217 170.554 255.899 170.634C255.916 170.85 255.941 171.062 255.966 171.274Z" fill="#252E55"/>
<path d="M284.588 168.364C286.244 168.724 287.625 169.025 289.006 169.321C291.221 169.795 293.36 169.567 295.515 168.838C298.031 167.991 300.611 167.318 303.164 166.585C303.457 166.5 303.774 166.5 304.388 166.42C304.075 166.937 303.978 167.343 303.732 167.466C302.694 167.987 301.64 168.495 300.547 168.881C298.959 169.444 297.294 169.8 295.731 170.422C293.597 171.269 291.454 171.367 289.239 170.952C288.218 170.761 287.176 170.659 286.177 170.401C285.321 170.177 284.444 169.846 284.588 168.364Z" fill="#252E55"/>
<path d="M279.26 230.631C278.858 230.991 278.718 231.228 278.523 231.279C275.296 232.181 272.073 232.791 268.803 231.393C268.168 231.122 267.41 231.008 266.715 231.033C264.733 231.114 263.098 230.165 261.434 229.339C261.159 229.204 261.112 228.606 260.96 228.221C261.303 228.098 261.65 227.865 261.985 227.882C262.421 227.908 262.878 228.077 263.272 228.289C265.58 229.526 268.232 229.653 270.629 230.622C272.564 231.406 274.589 231.059 276.584 230.728C277.359 230.601 278.155 230.296 279.26 230.631Z" fill="#252E55"/>
<path d="M266.448 182.586C266.546 180.401 266.677 178.677 266.681 176.953C266.686 176.068 266.559 175.157 266.326 174.297C265.635 171.727 265.271 169.122 265.445 166.339C265.669 166.649 266.025 166.924 266.101 167.267C266.978 171.299 268.477 175.246 267.778 179.494C267.613 180.494 267.512 181.506 266.448 182.586Z" fill="#252E55"/>
<path d="M427.762 308.721C419.529 300.602 412.062 291.573 405.722 281.899C399.704 272.721 392.521 264.611 385.977 255.827C379.146 246.657 375.719 237.552 373.428 226.447C370.971 214.529 363.928 205.431 357.042 195.609C350.019 185.593 342.442 175.869 335.213 165.984C333.997 164.319 332.718 162.756 331.388 161.249C329.745 159.881 328.297 158.707 327.263 157.924C326.162 157.089 325.201 156.086 324.409 154.955C322.185 152.329 318.369 149.03 315.298 146.895C315.01 146.696 314.718 146.493 314.468 146.243C313.858 145.633 312.8 145.561 311.931 145.688C311.427 146.035 311.05 146.569 310.915 147.204C310.64 148.483 311.05 149.593 311.487 150.508C313.164 154.01 314.773 157.111 317.522 159.563C317.89 159.889 318.28 160.135 318.661 160.372C319.03 160.605 319.381 160.825 319.623 161.075C319.758 161.219 319.902 161.363 320.046 161.507C320.741 162.21 321.457 162.934 321.639 163.616C321.982 164.925 322.689 165.945 323.312 166.843C323.536 167.165 323.748 167.47 323.938 167.784C326.065 171.218 328.911 173.865 332.138 176.724C332.498 177.042 332.866 177.36 333.235 177.677C335.59 179.706 337.818 181.625 338.741 184.53C340.062 188.681 342.108 192.509 344.09 196.211C345.009 197.926 345.958 199.701 346.813 201.467C348.088 204.097 349.647 206.613 351.154 209.048C351.853 210.17 352.573 211.331 353.251 212.483C353.624 213.114 353.975 213.758 354.352 214.44C354.53 214.761 354.712 215.092 354.886 215.409C354.894 215.422 355.508 216.646 354.979 217.718C354.64 218.404 353.835 218.832 352.967 218.789C351.79 218.726 350.68 218.666 349.731 218.073C349.439 217.891 349.147 217.718 348.85 217.54C348.304 217.214 347.792 216.909 347.309 216.566C345.585 215.342 343.87 214.109 342.15 212.872C340.384 211.606 338.618 210.336 336.843 209.078C336.238 208.646 335.547 208.281 334.853 208.023C333.082 207.367 331.092 208.184 330.325 209.891C329.326 212.114 329.245 214.198 330.088 216.091C331.498 219.255 333.658 223.152 337.898 225.214C341.786 227.107 344.577 230.178 347.529 233.426L347.741 233.659C348.939 234.981 349.757 236.556 350.621 238.225C351.154 239.258 351.709 240.326 352.362 241.338C353.251 242.714 354.123 244.146 354.966 245.527C355.987 247.2 357.037 248.932 358.147 250.6C360.01 253.4 362.488 255.585 365.508 257.093C367.918 258.296 370.501 259.55 373.415 260.93C375.465 261.9 377.706 262.256 380.082 261.981C380.454 261.938 380.827 261.892 381.178 261.849C381.234 261.947 381.284 262.04 381.335 262.133C381.687 262.777 382.051 263.442 382.53 264.039L383.194 264.869C385.498 267.749 387.883 270.727 390.348 273.56C393.402 277.067 396.078 280.976 398.666 284.758C399.712 286.283 400.792 287.858 401.885 289.396C406.929 296.473 411.402 304.113 415.722 311.5C417.136 313.918 418.597 316.417 420.063 318.861C421.659 321.529 423.315 324.218 424.916 326.819C426.466 329.335 428.067 331.939 429.613 334.514C433.531 341.049 438.516 346.852 443.34 352.464C443.89 353.103 444.437 353.738 444.983 354.378C446.317 355.937 447.897 357.279 449.422 358.571C450.121 359.164 450.845 359.782 451.527 360.4C451.832 360.68 452.124 360.972 452.433 361.286C452.577 361.43 452.721 361.574 452.865 361.718L453.174 362.023H513.642C504.925 357.698 494.659 352.417 489.627 349.897C467.468 338.792 445.525 326.243 427.762 308.721Z" fill="#F8A383"/>
<path d="M539.316 360.524C538.113 357.927 536.686 355.835 534.949 354.133C533.759 352.964 532.582 351.782 531.4 350.6C529.854 349.05 528.253 347.445 526.648 345.891C526.03 345.294 525.348 344.79 524.691 344.302C524.234 343.964 523.802 343.646 523.4 343.299C522.345 342.405 521.282 341.473 520.257 340.575C518.436 338.983 516.555 337.34 514.628 335.802C509.686 331.863 504.663 328.069 500.842 325.201C497.526 322.711 494.142 320.204 490.868 317.777C485.108 313.503 479.149 309.086 473.368 304.643C471.001 302.822 468.777 300.67 466.634 298.591C465.838 297.82 465.042 297.049 464.237 296.291C461.962 294.152 459.701 292.001 457.435 289.849C453.45 286.063 449.333 282.145 445.212 278.359C443.598 276.877 441.87 275.483 440.197 274.141C438.529 272.798 436.801 271.409 435.217 269.948C431.905 266.894 428.817 263.607 425.827 260.427C423.108 257.534 420.385 254.544 417.75 251.655C416.399 250.173 415.052 248.695 413.697 247.217L413.587 247.111C413.553 247.081 409.97 244.155 407.103 241.241C403.249 237.319 400.216 232.554 397.285 227.946C396.354 226.481 395.388 224.965 394.41 223.495C393.507 222.14 392.567 220.78 391.652 219.471C390.67 218.053 389.649 216.587 388.688 215.13C388.387 214.673 388.154 214.139 387.908 213.567C387.726 213.14 387.536 212.699 387.303 212.267C386.93 211.568 386.57 210.865 386.206 210.162C384.846 207.515 383.44 204.775 381.445 202.395C379.527 200.103 377.396 197.948 375.342 195.864L374.326 194.835C371.026 191.48 367.642 188.105 364.369 184.839L362.814 183.289C362.115 182.595 361.425 181.892 360.735 181.193C359.511 179.956 358.249 178.677 356.965 177.436C356.931 177.406 353.751 174.382 352.501 173.086C351.396 171.939 350.214 170.863 349.071 169.817C347.635 168.504 346.144 167.144 344.84 165.675C343.035 163.642 341.045 161.74 339.122 159.902C337.991 158.822 336.822 157.704 335.717 156.581C335.014 155.87 334.256 155.252 333.536 154.692C333.218 154.443 332.608 153.748 332.299 153.371L332.265 153.333C332.261 153.329 331.825 152.837 331.253 151.99C330.541 150.936 329.673 149.936 328.678 149.013L316.446 137.684C315.972 137.273 313.511 135.265 311.593 136.155L311.423 136.256C308.827 138.12 308.327 140.754 310.021 143.668C310.474 144.443 311.152 145.108 311.94 145.676C311.936 145.68 311.931 145.684 311.927 145.688C312.795 145.561 313.854 145.633 314.464 146.243C314.714 146.493 315.006 146.692 315.294 146.895C318.365 149.03 322.177 152.329 324.404 154.955C325.196 156.086 326.158 157.09 327.259 157.924C328.292 158.703 329.741 159.877 331.384 161.249C332.71 162.757 333.989 164.319 335.209 165.984C342.434 175.869 350.011 185.589 357.037 195.61C363.924 205.431 370.967 214.529 373.424 226.447C375.711 237.548 379.137 246.658 385.973 255.827C392.521 264.611 399.704 272.722 405.718 281.9C412.058 291.573 419.525 300.603 427.758 308.722C445.521 326.239 467.464 338.788 489.627 349.902C494.659 352.426 504.925 357.707 513.642 362.027H540.015L539.316 360.524Z" fill="#E27554"/>
<path d="M230.101 141.102C230.08 140.661 229.894 140.183 229.585 139.789C229.267 139.386 228.797 139.149 228.289 139.145C228.259 139.145 228.233 139.145 228.204 139.145C225.798 139.145 223.549 140.132 223.105 140.335C221.288 140.924 219.682 141.817 218.128 142.677C217.705 142.914 217.281 143.147 216.853 143.376C215.443 144.13 214.028 144.88 212.605 145.633L210.661 146.663L210.589 146.705C209.331 147.501 207.887 148.395 207.612 148.539L207.468 148.615C206.629 149.136 205.795 149.665 204.961 150.195C203.465 151.144 201.924 152.126 200.382 153.041C199.505 153.562 198.569 153.985 197.578 154.434C197.265 154.578 196.947 154.718 196.634 154.866C195.533 155.379 194.423 155.879 193.318 156.378C190.959 157.441 188.519 158.538 186.181 159.767C183.577 161.13 181.12 162.799 178.858 164.396C174.246 167.649 169.312 171.164 164.488 174.84C163.162 175.848 161.968 177.017 160.812 178.148C160.121 178.825 159.406 179.524 158.681 180.168C158.406 180.414 158.029 180.617 157.627 180.837C157.229 181.053 156.818 181.278 156.428 181.574C156.123 181.807 155.852 182.099 155.598 182.468L155.204 183.04C152.117 187.537 148.928 192.192 146.043 196.974C141.791 204.017 136.971 212.005 130.834 218.646C130.593 218.908 130.343 219.167 130.097 219.421C129.903 219.624 129.708 219.827 129.513 220.035C129.297 220.242 127.095 222.364 124.922 224.19C121.788 225.083 119.509 227.112 117.303 229.073L117.252 229.115C116.553 229.734 115.888 230.394 115.249 231.034C114.711 231.568 114.16 232.114 113.601 232.626C109.205 236.654 105.651 240.483 102.746 244.337C101.611 245.841 100.256 247.251 98.9596 248.551C93.729 253.79 89.6928 257.767 85.8641 261.448C82.5309 264.654 79.0834 267.97 75.4749 271.053C72.129 273.916 68.6137 276.707 65.217 279.41C63.7939 280.54 62.3709 281.671 60.9521 282.81L60.7572 282.971C60.5285 283.162 60.2913 283.357 60.1092 283.429C58.0255 284.255 56.4584 285.669 54.9422 287.042C54.4594 287.478 53.9596 287.931 53.4598 288.346C50.0631 291.167 47.2382 293.344 44.5742 295.19C42.2066 296.834 39.7248 298.413 37.3233 299.938C35.7944 300.912 34.2104 301.916 32.6688 302.937C28.2344 305.859 22.5506 309.874 17.8749 315.066C16.2316 316.896 14.7916 318.853 13.4829 320.699C9.78546 325.913 5.66452 332.08 3.53417 339.305C3.20382 340.427 2.96664 341.575 2.73793 342.685C2.64899 343.125 2.55582 343.566 2.4584 344.002C2.33982 344.536 2.09417 345.362 1.92476 345.802C1.00146 348.17 0.416992 350.8 0.137463 353.845C-0.0827725 356.238 0.336522 358.233 1.41652 359.939C1.55629 360.16 1.65793 360.469 1.76805 360.791C1.83158 360.981 1.89511 361.168 1.96711 361.354L2.22546 362.027H61.9304L62.2311 361.756C63.5441 360.579 64.7723 359.575 66.4961 359.236C67.6099 359.016 68.5671 358.313 69.4099 357.695C69.6217 357.538 69.8292 357.386 70.0368 357.242C70.5958 356.856 71.121 356.437 71.6292 356.034C72.2391 355.547 72.8151 355.09 73.4292 354.7C76.2457 352.896 78.9944 350.745 81.8405 348.123C85.1356 345.086 87.6683 342.376 89.8071 339.589C92.2085 336.463 94.6777 333.075 96.2278 329.051C97.0918 326.802 98.2862 324.6 99.4424 322.47L99.8786 321.661C104.033 313.965 107.667 307.879 111.31 302.505C112.398 300.899 113.478 299.286 114.558 297.672C115.947 295.597 117.387 293.45 118.823 291.353C119.941 289.718 121.102 288.066 122.224 286.466C123.524 284.615 124.867 282.705 126.159 280.799C127.408 278.956 128.653 277.067 129.86 275.242C131.576 272.646 133.346 269.956 135.154 267.369C136.781 265.039 138.56 262.744 140.279 260.524C140.948 259.66 141.617 258.796 142.282 257.928C142.6 257.513 142.863 257.098 143.142 256.658C143.367 256.302 143.604 255.933 143.871 255.561C146.59 251.778 150.058 251.38 150.198 251.368L150.342 251.355L150.478 251.304C151.291 250.995 152.134 250.703 152.947 250.423C155.437 249.559 158.008 248.666 160.35 247.149C167.144 242.762 171.578 238.471 174.725 233.249C176.076 231.004 177.677 228.84 179.223 226.744L179.511 226.354C179.553 226.299 179.591 226.244 179.625 226.185C180.154 225.359 180.688 224.702 181.256 224.177C182.234 223.271 184.042 221.721 187.117 219.467C187.769 218.98 188.282 218.392 188.782 217.824C189.121 217.439 189.438 217.074 189.777 216.765C191.073 215.584 192.433 214.41 193.75 213.28C194.173 212.915 194.597 212.551 195.016 212.187C195.177 212.047 195.355 211.916 195.588 211.746C195.715 211.653 195.855 211.547 196.011 211.429L196.134 211.336L196.227 211.209C196.253 211.175 196.274 211.145 196.304 211.111C196.359 211.043 196.481 211.001 196.63 210.997C197.21 210.98 197.79 210.798 198.298 210.637C198.404 210.603 198.51 210.569 198.612 210.539C201.009 209.815 202.978 208.43 204.461 206.414C205.066 205.593 205.448 204.873 205.668 204.144C205.99 203.064 205.863 201.925 205.304 200.929C204.736 199.921 203.766 199.172 202.644 198.884C201.297 198.537 199.696 198.253 197.981 198.799C192.996 198.935 189.502 201.666 187.011 204.038C184.513 206.418 181.37 207.062 177.423 207.304C177.126 207.316 176.724 207.193 176.254 207.041C176.105 206.994 175.945 206.939 175.775 206.889C175.737 206.524 175.754 205.631 176.271 203.716C176.724 202.763 177.139 201.789 177.537 200.845C177.969 199.82 178.418 198.757 178.909 197.757C179.456 196.648 180.095 195.542 180.718 194.471C181.057 193.886 181.395 193.297 181.726 192.709C181.764 192.637 181.81 192.565 181.853 192.489C182.103 192.073 182.412 191.557 182.391 190.926C182.353 189.85 182.763 189.553 184.411 188.842C185.94 188.185 187.299 187.207 188.617 186.263L189.209 185.835C190.489 184.924 191.734 183.946 192.937 183.001C193.347 182.68 193.762 182.353 194.173 182.032C195.833 180.863 197.223 179.363 198.095 178.309C198.688 177.593 199.45 177 200.369 176.547C203.669 174.912 206.561 172.794 209.213 170.071L209.776 169.491C211.419 167.805 213.113 166.065 214.689 164.239C214.765 164.15 214.875 164.087 214.913 164.074C216.917 163.57 218.509 162.397 219.78 160.482C220.203 159.847 220.678 159.246 221.177 158.61C221.605 158.068 222.046 157.509 222.457 156.921C223.287 155.73 223.939 154.659 224.447 153.647C224.811 152.914 224.917 152.147 224.756 151.36C224.684 151.021 224.557 150.703 224.375 150.419C224.989 150.059 225.536 149.577 225.976 148.984C227.187 147.349 228.814 145.019 229.733 143.38C230.118 142.669 230.135 141.826 230.101 141.102Z" fill="#F8A383"/>
<path d="M225.625 149.335C227.37 147.243 228.729 145.311 229.784 143.435C230.178 142.732 230.199 141.893 230.165 141.165C230.135 140.5 229.724 139.776 229.17 139.395C228.538 138.963 227.636 138.857 226.637 139.094C226.129 139.212 225.54 139.445 225.036 139.797L223.236 140.373C221.389 140.962 219.763 141.864 218.192 142.736C217.768 142.973 217.34 143.206 216.913 143.435C215.502 144.189 214.088 144.934 212.665 145.688L209.916 147.141C209.916 147.141 208.95 147.653 207.523 148.666C206.718 149.237 205.85 149.716 205.016 150.245C203.521 151.194 201.975 152.172 200.437 153.087C199.561 153.608 198.625 154.032 197.634 154.476C197.316 154.62 197.003 154.76 196.689 154.908C195.588 155.421 194.478 155.921 193.369 156.42C191.01 157.484 188.57 158.58 186.228 159.804C183.619 161.172 181.163 162.833 178.901 164.429C174.284 167.678 169.35 171.193 164.522 174.865C163.196 175.873 162.002 177.042 160.846 178.173C160.155 178.851 159.44 179.549 158.715 180.193C158.44 180.439 158.059 180.642 157.661 180.862C157.364 181.023 157.059 181.188 156.755 181.392C156.314 181.684 155.933 182.052 155.653 182.459L155.234 183.069C152.146 187.567 148.953 192.217 146.065 196.995C141.808 204.038 136.984 212.021 130.843 218.658C130.602 218.921 130.352 219.179 130.106 219.433C129.903 219.641 129.704 219.852 129.505 220.064C129.255 220.331 129.005 220.602 128.683 220.954L125.977 223.897C125.706 223.982 125.434 224.062 125.163 224.134C121.906 224.994 119.569 227.069 117.307 229.077L117.256 229.119C116.557 229.738 115.892 230.398 115.249 231.034C114.711 231.567 114.16 232.114 113.601 232.626C109.201 236.65 105.647 240.478 102.738 244.332C101.598 245.844 100.23 247.263 98.9216 248.568C95.1987 252.291 90.8703 256.606 86.5672 260.736L85.9404 261.337C82.5564 264.586 79.0623 267.944 75.4496 271.028C72.0994 273.886 68.5841 276.677 65.1832 279.38C63.7601 280.51 62.3371 281.641 60.9183 282.78L60.7234 282.941C60.4947 283.132 60.2576 283.327 60.0754 283.399C57.9917 284.225 56.4246 285.639 54.9084 287.007C54.4256 287.444 53.9258 287.897 53.4218 288.312C50.0251 291.132 47.2001 293.305 44.5319 295.152C42.1686 296.791 39.6867 298.366 37.2853 299.891C35.7521 300.865 34.1681 301.873 32.6223 302.89C28.1879 305.808 22.4999 309.823 17.8241 315.011C16.1766 316.836 14.7409 318.797 13.4279 320.64C9.7305 325.849 5.60109 332.016 3.4665 339.241C3.13614 340.364 2.89473 341.516 2.66603 342.625C2.55591 343.155 2.44579 343.68 2.3272 344.205C2.30603 344.298 2.28485 344.391 2.26791 344.484C2.21709 344.734 2.16626 344.972 2.09003 345.149C1.02697 347.665 0.362027 350.486 0.0570859 353.777C-0.163149 356.17 0.251909 358.164 1.33614 359.871C1.47591 360.092 1.57756 360.401 1.68767 360.727C1.7512 360.917 1.81473 361.104 1.88673 361.29L2.14932 361.964L14.8171 361.972L15.067 361.824C28.7216 353.671 39.331 341.062 49.5889 328.873C52.4477 325.476 55.4039 321.965 58.3347 318.67C72.019 303.279 84.8646 286.63 96.5159 269.185C97.9517 267.034 99.379 264.81 100.76 262.663C104.343 257.076 108.053 251.3 112.33 246.183C116.532 241.16 121.627 238.136 127.027 234.939C129.149 233.681 131.347 232.376 133.515 230.932C141.579 225.557 147.098 217.438 152.435 209.586C157.102 202.725 161.926 195.627 168.406 190.46C173.891 186.089 179.828 181.659 187.092 176.521L188.151 175.772L188.146 175.767C194.728 171.134 201.5 166.547 208.057 162.108C211.089 160.054 214.122 158.004 217.137 155.946L219.492 154.341C222.321 152.219 225.625 149.335 225.625 149.335Z" fill="#E27554"/>
</g>
<defs>
<linearGradient id="paint0_linear" x1="53.5142" y1="36.6294" x2="351.642" y2="430.998" gradientUnits="userSpaceOnUse">
<stop stop-color="#4BCCC4"/>
<stop offset="0.0833333" stop-color="#4BCAC6"/>
<stop offset="0.335703" stop-color="#4CC6CB"/>
<stop offset="1" stop-color="#4EB9DA"/>
</linearGradient>
<linearGradient id="paint1_linear" x1="65.0327" y1="0.756836" x2="367.248" y2="397.794" gradientUnits="userSpaceOnUse">
<stop stop-color="#4BCCC4"/>
<stop offset="0.0833333" stop-color="#4BCAC6"/>
<stop offset="0.335703" stop-color="#4CC6CB"/>
<stop offset="1" stop-color="#4EB9DA"/>
</linearGradient>
<linearGradient id="paint2_linear" x1="69.4821" y1="71.145" x2="207.405" y2="381.671" gradientUnits="userSpaceOnUse">
<stop stop-color="#4BCCC4"/>
<stop offset="0.0833333" stop-color="#4BCAC6"/>
<stop offset="0.335703" stop-color="#4CC6CB"/>
<stop offset="1" stop-color="#4EB9DA"/>
</linearGradient>
<clipPath id="clip0">
<rect y="0.756836" width="540.015" height="361.271" fill="white"/>
</clipPath>
</defs>
</svg>
